<svg xmlns="http://www.w3.org/2000/svg" xmlns:xlink="http://www.w3.org/1999/xlink" width="33" height="29" viewBox="0 0 33 29"><defs><path id="bgsea" d="M851.64 5452.751l-5.367 6.125a2.173 2.173 0 0 1-.273-1.043v-8.666c0-.424.125-.817.331-1.151zm10.366 6.916a2.072 2.072 0 0 1-1.122.333h-12.758c-.414 0-.796-.125-1.122-.333l5.44-6.202 1.711 1.527a.525.525 0 0 0 .7 0l1.711-1.527zm-14.893-12.394a2.06 2.06 0 0 1 1.012-.273h12.75c.368 0 .71.104 1.013.273l-7.388 6.591zm15.887 10.56c0 .38-.105.733-.273 1.042l-5.367-6.123 5.309-4.736c.207.334.331.727.331 1.15z"/><mask id="bgsec" width="2" height="2" x="-1" y="-1"><path fill="#fff" d="M846 5447h17v13h-17z"/><use xlink:href="#bgsea"/></mask><filter id="bgseb" width="62" height="58" x="826" y="5427" filterUnits="userSpaceOnUse"><feOffset dx="5" dy="5" in="SourceGraphic" result="FeOffset1126Out"/><feGaussianBlur in="FeOffset1126Out" result="FeGaussianBlur1127Out" stdDeviation="4 4"/></filter></defs><g><g transform="translate(-843 -5444)"><g filter="url(#bgseb)"><use fill="none" stroke-opacity=".15" stroke-width="0" mask="url(&quot;#bgsec&quot;)" xlink:href="#bgsea"/><use fill="#122429" fill-opacity=".15" xlink:href="#bgsea"/></g><use fill="#2bb0cd" xlink:href="#bgsea"/></g></g></svg>