<svg xmlns="http://www.w3.org/2000/svg" xmlns:xlink="http://www.w3.org/1999/xlink" width="34" height="49" viewBox="0 0 34 49"><defs><path id="ddp2a" d="M933.322 5517.007l-4.317-.007c-4.85 0-7.985 3.188-7.985 8.121v3.745h-4.341a.676.676 0 0 0-.679.673v5.425c0 .372.304.673.679.673h4.34v13.69c0 .372.305.673.68.673h5.663a.676.676 0 0 0 .68-.673v-13.69h5.075a.676.676 0 0 0 .679-.673l.002-5.425a.67.67 0 0 0-.2-.476.682.682 0 0 0-.48-.197h-5.077v-3.174c0-1.526.367-2.3 2.372-2.3l2.908-.002a.676.676 0 0 0 .679-.673v-5.037a.676.676 0 0 0-.678-.673z"/><mask id="ddp2c" width="2" height="2" x="-1" y="-1"><path fill="#fff" d="M916 5517h18v33h-18z"/><use xlink:href="#ddp2a"/></mask><filter id="ddp2b" width="63" height="78" x="896" y="5497" filterUnits="userSpaceOnUse"><feOffset dx="5" dy="5" in="SourceGraphic" result="FeOffset1166Out"/><feGaussianBlur in="FeOffset1166Out" result="FeGaussianBlur1167Out" stdDeviation="4 4"/></filter></defs><g><g transform="translate(-913 -5514)"><g filter="url(#ddp2b)"><use fill="none" stroke-opacity=".15" stroke-width="0" mask="url(&quot;#ddp2c&quot;)" xlink:href="#ddp2a"/><use fill="#122429" fill-opacity=".15" xlink:href="#ddp2a"/></g><use fill="#2bb0cd" xlink:href="#ddp2a"/></g></g></svg>