<svg xmlns="http://www.w3.org/2000/svg" xmlns:xlink="http://www.w3.org/1999/xlink" width="46" height="46" viewBox="0 0 46 46"><defs><path id="vi40a" d="M998.435 5523.585c.364.362.571.865.571 1.38 0 .513-.207 1.017-.571 1.38a1.971 1.971 0 0 1-1.38.572c-.513 0-1.017-.21-1.38-.571a1.968 1.968 0 0 1-.573-1.38c0-.516.21-1.02.574-1.381a1.96 1.96 0 0 1 1.378-.572 1.96 1.96 0 0 1 1.381.572zM996.73 5533c0 4.263-3.467 7.73-7.73 7.73s-7.73-3.467-7.73-7.73c0-4.262 3.467-7.73 7.73-7.73s7.73 3.468 7.73 7.73zm-2.662 0a5.074 5.074 0 0 0-5.068-5.068 5.074 5.074 0 0 0-5.068 5.068 5.074 5.074 0 0 0 5.068 5.068 5.074 5.074 0 0 0 5.068-5.068zm9.932-6.721v13.442c0 4.565-3.714 8.279-8.28 8.279H982.28c-4.565 0-8.279-3.714-8.279-8.279v-13.442c0-4.565 3.714-8.279 8.279-8.279h13.442c4.565 0 8.28 3.714 8.279 8.279zm-2.662 13.442v-13.442a5.624 5.624 0 0 0-5.617-5.617h-13.442a5.624 5.624 0 0 0-5.617 5.617v13.442a5.623 5.623 0 0 0 5.617 5.617h13.442a5.624 5.624 0 0 0 5.617-5.617z"/><mask id="vi40c" width="2" height="2" x="-1" y="-1"><path fill="#fff" d="M974 5518h30v30h-30z"/><use xlink:href="#vi40a"/></mask><filter id="vi40b" width="75" height="75" x="954" y="5498" filterUnits="userSpaceOnUse"><feOffset dx="5" dy="5" in="SourceGraphic" result="FeOffset1186Out"/><feGaussianBlur in="FeOffset1186Out" result="FeGaussianBlur1187Out" stdDeviation="4 4"/></filter></defs><g><g transform="translate(-971 -5515)"><g filter="url(#vi40b)"><use fill="none" stroke-opacity=".15" stroke-width="0" mask="url(&quot;#vi40c&quot;)" xlink:href="#vi40a"/><use fill="#122429" fill-opacity=".15" xlink:href="#vi40a"/></g><use fill="#2bb0cd" xlink:href="#vi40a"/></g></g></svg>