<svg xmlns="http://www.w3.org/2000/svg" xmlns:xlink="http://www.w3.org/1999/xlink" width="31" height="31" viewBox="0 0 31 31"><defs><path id="nzria" d="M862.641 5344.655l-2.47-2.477c-.493-.49-1.308-.476-1.817.035l-1.245 1.247-.246-.137c-.786-.436-1.862-1.035-2.994-2.17-1.136-1.138-1.733-2.218-2.17-3.007-.046-.083-.09-.164-.134-.24l.836-.837.41-.412c.51-.511.525-1.328.033-1.82l-2.47-2.478c-.491-.492-1.307-.477-1.817.035l-.696.702.019.019a4.039 4.039 0 0 0-.574 1.014c-.134.354-.217.691-.256 1.03-.326 2.71.91 5.188 4.265 8.55 4.637 4.647 8.373 4.296 8.535 4.279a4.167 4.167 0 0 0 1.03-.26 4.01 4.01 0 0 0 1.008-.572l.015.013.705-.692c.51-.511.524-1.328.033-1.822z"/><mask id="nzric" width="2" height="2" x="-1" y="-1"><path fill="#fff" d="M847 5332h16v16h-16z"/><use xlink:href="#nzria"/></mask><filter id="nzrib" width="61" height="61" x="827" y="5312" filterUnits="userSpaceOnUse"><feOffset dx="5" dy="5" in="SourceGraphic" result="FeOffset1106Out"/><feGaussianBlur in="FeOffset1106Out" result="FeGaussianBlur1107Out" stdDeviation="4 4"/></filter></defs><g><g transform="translate(-844 -5330)"><g filter="url(#nzrib)"><use fill="none" stroke-opacity=".15" stroke-width="0" mask="url(&quot;#nzric&quot;)" xlink:href="#nzria"/><use fill="#122429" fill-opacity=".15" xlink:href="#nzria"/></g><use fill="#2bb0cd" xlink:href="#nzria"/></g></g></svg>