<svg xmlns="http://www.w3.org/2000/svg" xmlns:xlink="http://www.w3.org/1999/xlink" width="45" height="42" viewBox="0 0 45 42"><defs><path id="2tp3a" d="M854.333 5534.72l14.41-8.92c.26-.16.526.192.303.4l-11.893 11.11a2.482 2.482 0 0 0-.764 1.482l-.405 3.017c-.053.403-.617.443-.727.053l-1.558-5.502a1.461 1.461 0 0 1 .634-1.64zm-9.768-1.294l7.374 2.766 2.854 9.224c.182.59.901.809 1.378.417l4.11-3.368a1.221 1.221 0 0 1 1.495-.041l7.413 5.408a.868.868 0 0 0 1.362-.528l5.43-26.251a.87.87 0 0 0-1.164-.993l-30.26 11.732c-.747.29-.74 1.352.008 1.634z"/><mask id="2tp3c" width="2" height="2" x="-1" y="-1"><path fill="#fff" d="M844 5520h32v28h-32z"/><use xlink:href="#2tp3a"/></mask><filter id="2tp3b" width="77" height="73" x="824" y="5500" filterUnits="userSpaceOnUse"><feOffset dx="5" dy="5" in="SourceGraphic" result="FeOffset1146Out"/><feGaussianBlur in="FeOffset1146Out" result="FeGaussianBlur1147Out" stdDeviation="4 4"/></filter></defs><g><g transform="translate(-843 -5518)"><g filter="url(#2tp3b)"><use fill="none" stroke-opacity=".15" stroke-width="0" mask="url(&quot;#2tp3c&quot;)" xlink:href="#2tp3a"/><use fill="#122429" fill-opacity=".15" xlink:href="#2tp3a"/></g><use fill="#2bb0cd" xlink:href="#2tp3a"/></g></g></svg>